<svg width="1080" height="260" viewBox="0 0 1080 260" fill="none" xmlns="http://www.w3.org/2000/svg">
<g clip-path="url(#clip0_14764_93852)">
<path d="M114.987 103.394H128.713V13.0102H142.088V0.0126953H101.612V13.0102H114.987V103.394Z" fill="#F0F5FF"/>
<path d="M246.745 103.394H280.741V90.3969H260.484V57.4672H280.741V44.769H260.484V13.0102H280.741V0.0126953H246.745V103.394Z" fill="#F0F5FF"/>
<path d="M34.9462 50.9619C39.5259 48.607 41.4385 44.6128 41.4385 38.4068V16.2629C41.4385 5.63327 38.0427 0.0126953 23.7181 0.0126953H0.24707V103.394H24.6028C38.7843 103.394 42.024 96.4468 42.024 85.8172V63.8164C42.024 57.4672 39.9553 53.3299 34.9332 50.9619H34.9462ZM13.9862 13.0102H23.2757C27.4131 13.0102 27.9986 15.222 27.9986 19.6586V37.3789C27.9986 41.9587 27.4131 44.7559 23.1196 44.7559H13.9732V13.0102H13.9862ZM28.2978 85.5179C28.2978 88.7706 27.1139 90.3969 23.575 90.3969H13.9862V57.4672H23.2757C27.1138 57.4672 28.2978 59.5359 28.2978 62.9317V85.5309V85.5179Z" fill="#F0F5FF"/>
<path d="M164.57 44.769H160.004V103.394H172.832V44.769H178.296V13.0102H191.671V0.0126953H151.195V13.0102H164.57V44.769Z" fill="#F0F5FF"/>
<path d="M236.349 90.3969H211.525V44.769H216.079V0.0126953H202.353V44.769H197.786V103.394H236.349V90.3969Z" fill="#F0F5FF"/>
<path d="M101.274 77.5166H96.7202L83.9178 0.0258789H66.4968L49.4139 103.408H63.2962L66.9261 77.5296H88.0422L91.6721 103.408H105.554L101.274 77.5296V77.5166ZM68.7086 64.8183L75.2008 18.5529L81.6931 64.8183H68.7086Z" fill="#F0F5FF"/>
<path d="M467.455 90.3969H442.644V44.769H447.198V0.0126953H433.459V44.769H428.905V103.394H467.455V90.3969Z" fill="#F0F5FF"/>
<path d="M522.685 0.949455L523.557 4.41026H524.403L525.274 0.949455V4.41026H526.094V0.0126953H524.767L523.986 3.00514L523.18 0.0126953H521.852V4.41026H522.685V0.949455Z" fill="#F0F5FF"/>
<path d="M536.034 103.395H538.675V99.6086H536.034C535.422 99.6086 535.136 99.3483 535.097 98.7108V93.8189C535.097 93.2074 535.383 92.8821 535.995 92.8821H536.867C537.387 92.8821 537.569 93.1163 538.181 93.7278L547.925 103.382H551.712V101.781L549.266 99.3353C549.057 99.1271 549.174 98.8409 549.409 98.8409H551.712V89.1221H547.925V98.0603L539.807 90.0328C539.052 89.2782 538.116 89.1351 536.632 89.1351H535.995C532.729 89.1351 531.337 90.7614 531.337 93.8189V98.7108C531.337 102.002 532.963 103.395 536.021 103.395H536.034Z" fill="#F0F5FF"/>
<path d="M547.028 59.4844H535.995C532.729 59.4844 531.337 61.0847 531.337 64.1421V68.7739C531.337 72.0655 532.937 73.4577 535.995 73.4577H547.028C550.085 73.4577 551.712 72.0655 551.712 68.7739V64.1421C551.712 61.0847 550.319 59.4844 547.028 59.4844ZM547.925 68.7609C547.925 69.3984 547.639 69.6586 547.028 69.6586H535.995C535.409 69.6586 535.097 69.3984 535.097 68.7609V64.1291C535.097 63.5436 535.383 63.2314 535.995 63.2314H547.028C547.665 63.2314 547.925 63.5566 547.925 64.1291V68.7609Z" fill="#F0F5FF"/>
<path d="M547.952 29.9629L545.506 32.2007C545.297 32.3698 545.011 32.2527 545.011 32.0576V29.9629H531.337V33.7229L545.011 43.9102H548.797V33.7229H551.712V29.9629H547.952ZM545.011 39.2134L537.647 33.7099H545.011V39.2134Z" fill="#F0F5FF"/>
<path d="M536.034 14.2726H538.675V10.4865H536.034C535.422 10.4865 535.136 10.2263 535.097 9.58876V4.69678C535.097 4.08529 535.383 3.76002 535.995 3.76002H536.867C537.387 3.76002 537.569 3.9942 538.181 4.6057L547.925 14.2595H551.712V12.6592L549.266 10.2132C549.057 10.0051 549.174 9.71887 549.409 9.71887H551.712V0H547.925V8.93823L539.807 0.910713C539.052 0.156103 538.116 0.0129835 536.632 0.0129835H535.995C532.729 0.0129835 531.337 1.63931 531.337 4.69678V9.58876C531.337 12.8804 532.963 14.2726 536.021 14.2726H536.034Z" fill="#F0F5FF"/>
<path d="M297.928 103.394H311.667V57.4672H331.925V44.769H311.667V13.0102H331.925V0.0126953H297.928V103.394Z" fill="#F0F5FF"/>
<path d="M415.361 90.3969H390.55V57.4672H415.361V44.769H395.104V13.0102H415.361V0.0126953H381.365V57.4672H376.811V103.394H415.361V90.3969Z" fill="#F0F5FF"/>
<path d="M360.964 0.0126953H347.238V103.394H360.964V0.0126953Z" fill="#F0F5FF"/>
<path d="M519.12 4.41026H520.018V0.767328H521.306V0.0126953H517.819V0.767328H519.12V4.41026Z" fill="#F0F5FF"/>
<path d="M499.513 0.0126953H476.042V103.394H499.813C514.28 103.394 517.832 96.746 517.832 85.2317V18.1884C517.832 6.96032 514.137 0.0257186 499.526 0.0257186L499.513 0.0126953ZM504.093 85.3748C504.093 88.6275 502.909 90.3969 499.214 90.3969H489.781V12.9582H499.071C502.766 12.9582 504.093 14.5845 504.093 18.1234V85.3748Z" fill="#F0F5FF"/>
<path d="M861.375 61.9432V62.0473C861.375 62.2685 861.505 62.3726 861.753 62.3726C861.896 62.3726 862.052 62.2945 862.195 62.1514L866.762 57.7018H872.864L867.868 43.9106L861.388 61.9302L861.375 61.9432Z" fill="#FF6432"/>
<path d="M912.676 39.7464H901.682V64.6876H912.676C913.925 64.6876 914.549 64.0631 914.549 62.8141V41.6069C914.549 40.3579 913.925 39.7334 912.676 39.7334V39.7464Z" fill="#FF6432"/>
<path d="M831.607 39.7471H820.613V48.8154H831.607C832.193 48.8154 832.648 48.6463 832.986 48.295C833.312 47.9437 833.481 47.5014 833.481 46.9549V41.6206C833.481 40.3716 832.856 39.7471 831.607 39.7471Z" fill="#FF6432"/>
<path d="M784.873 39.7471H793.994C795.022 39.7471 795.867 40.5797 795.867 41.6206V62.8277C795.867 63.8556 795.035 64.7013 793.994 64.7013H784.873C783.846 64.7013 783 63.8686 783 62.8277V41.6206C783 40.5928 783.833 39.7471 784.873 39.7471Z" fill="#FF6432"/>
<path d="M756.354 39.7464H745.36V48.6456H756.354C757.603 48.6456 758.228 48.0211 758.228 46.7721V41.6069C758.228 40.3579 757.603 39.7334 756.354 39.7334V39.7464Z" fill="#FF6432"/>
<path d="M940.87 61.9432V62.0473C940.87 62.2685 941 62.3726 941.247 62.3726C941.39 62.3726 941.546 62.2945 941.689 62.1514L946.256 57.7018H952.358L947.362 43.9106L940.883 61.9302L940.87 61.9432Z" fill="#FF6432"/>
<path d="M585.708 0.0126953V103.394H1079.91V0.0126953H585.708ZM642.876 39.7469H633.093V71.4535H626.327V45.2373L630.556 40.6186C630.66 40.5145 630.725 40.3584 630.725 40.1762C630.725 39.8509 630.582 39.6818 630.282 39.6818L616.491 39.7339V32.9814H642.863V39.7339L642.876 39.7469ZM680.49 39.7469H660.87V52.7704C660.87 53.0697 661.039 53.2128 661.365 53.2128C661.547 53.2128 661.69 53.1607 661.807 53.0436L666.425 48.8152H677.146V55.5807H660.883V64.7011H680.503V71.4535H654.131V32.9944H680.503V39.7469H680.49ZM727.484 71.4015H720.719V43.0516L709.504 59.5879L698.236 42.9345V71.4015H691.471V40.7357H695.647C695.868 40.7357 696.038 40.6576 696.168 40.5145C696.298 40.3714 696.285 40.1242 696.142 39.7989L691.471 32.9814H699.771L709.504 47.5922L719.287 32.9814L727.471 32.9294V71.3885L727.484 71.4015ZM764.993 46.7856C764.993 49.5698 764.265 51.7035 762.821 53.1867C761.376 54.6699 759.217 55.4116 756.367 55.4116H745.373V71.4015H738.608V45.3024L742.836 40.6836C742.941 40.5795 743.006 40.4234 743.006 40.2413C743.006 39.916 742.862 39.7469 742.563 39.7469H738.608V32.9944H756.354C759.139 32.9944 761.272 33.723 762.756 35.1672C764.239 36.6113 764.98 38.7711 764.98 41.6204V46.7856H764.993ZM802.633 62.8275C802.633 65.6899 801.891 67.8366 800.408 69.2808C798.925 70.725 796.791 71.4535 794.007 71.4535H784.886C782.024 71.4535 779.877 70.7119 778.433 69.2287C776.989 67.7455 776.26 65.6118 776.26 62.8275V41.6204C776.26 38.8361 776.989 36.7024 778.433 35.2192C779.877 33.736 782.037 32.9944 784.886 32.9944H794.007C796.791 32.9944 798.925 33.723 800.408 35.1672C801.891 36.6113 802.633 38.7711 802.633 41.6204V62.8275ZM833.546 71.4535L827.782 55.5677H820.639V71.4535H813.874V45.3544L818.102 40.7357C818.206 40.6316 818.272 40.4755 818.272 40.2933C818.272 39.9681 818.128 39.7989 817.829 39.7989H813.874V32.9814H831.62C834.405 32.9814 836.538 33.71 838.021 35.1542C839.505 36.5983 840.246 38.7581 840.246 41.6074V46.9417C840.246 49.1014 839.791 50.8969 838.867 52.3281C837.956 53.7592 836.616 54.709 834.86 55.1904L840.741 71.4535H833.546ZM877.808 71.4535L875.284 64.4799H860.504L857.98 71.4535H850.837L864.68 32.9944H871.107L884.951 71.4535H877.808ZM921.302 62.8275C921.302 65.6899 920.56 67.8366 919.077 69.2808C917.594 70.725 915.46 71.4535 912.676 71.4535H894.929V45.3024L899.158 40.6836C899.262 40.5795 899.327 40.4234 899.327 40.2413C899.327 39.916 899.184 39.7469 898.885 39.7469H894.929V32.9944H912.676C915.46 32.9944 917.594 33.723 919.077 35.1672C920.56 36.6113 921.302 38.7711 921.302 41.6204V62.8275ZM957.315 71.4535L954.791 64.4799H940.011L937.487 71.4535H930.344L944.188 32.9944H950.615L964.458 71.4535H957.315ZM1017.87 62.8275C1017.87 65.6899 1017.12 67.8366 1015.64 69.2808C1014.16 70.725 1012.02 71.4535 1009.24 71.4535H1000.12C997.257 71.4535 995.111 70.7119 993.666 69.2287C992.222 67.7455 991.494 65.6118 991.494 62.8275V41.6204C991.494 38.8361 992.222 36.7024 993.666 35.2192C995.111 33.736 997.27 32.9944 1000.12 32.9944H1009.24C1012.02 32.9944 1014.16 33.723 1015.64 35.1672C1017.12 36.6113 1017.87 38.7711 1017.87 41.6204V62.8275ZM1055.25 62.8275C1055.25 65.6118 1054.52 67.7455 1053.07 69.2287C1051.63 70.7119 1049.47 71.4535 1046.62 71.4535H1037.5C1034.71 71.4535 1032.58 70.725 1031.1 69.2808C1029.61 67.8366 1028.87 65.6769 1028.87 62.8275V58.9764H1035.64V62.8275C1035.64 64.0766 1036.26 64.7011 1037.51 64.7011H1046.63C1047.88 64.7011 1048.51 64.0766 1048.51 62.8275V57.3371C1048.51 56.0881 1047.88 55.4636 1046.63 55.4636H1028.89V32.9944H1055.21V39.7469H1035.64V52.6533C1035.64 52.9526 1035.81 53.0957 1036.13 53.0957C1036.31 53.0957 1036.46 53.0436 1036.58 52.9265L1041.19 48.6981H1046.63C1049.42 48.6981 1051.55 49.4267 1053.03 50.8709C1054.52 52.315 1055.26 54.4748 1055.26 57.3241V62.8146L1055.25 62.8275Z" fill="#FF6432"/>
<path d="M1000.11 39.7471H1009.23C1010.25 39.7471 1011.1 40.5797 1011.1 41.6206V62.8277C1011.1 63.8556 1010.27 64.7013 1009.23 64.7013H1000.11C999.079 64.7013 998.233 63.8686 998.233 62.8277V41.6206C998.233 40.5928 999.066 39.7471 1000.11 39.7471Z" fill="#FF6432"/>
<path d="M0 229.987V154.838H7.67625C8.82117 154.838 9.39365 154.357 9.39365 153.381C9.39365 153.121 9.17245 152.548 8.7301 151.663L0 137.378H20.2445L61.5269 198.905L60.8633 137.378H78.8569V230H60.9934L17.9936 165.832V230H0V229.987Z" fill="#F0F5FF"/>
<path d="M92.609 159.067C92.609 151.664 94.2873 146.186 97.6311 142.661C100.988 139.135 106.543 137.365 114.298 137.365H134.412C141.815 137.365 147.292 139.044 150.818 142.387C154.344 145.744 156.113 151.299 156.113 159.054V208.273C156.113 216.04 154.344 221.595 150.818 224.939C147.292 228.296 141.815 229.961 134.412 229.961H114.298C106.53 229.961 100.975 228.192 97.6311 224.666C94.2743 221.14 92.609 215.663 92.609 208.26V159.041V159.067ZM110.603 208.286C110.603 209.522 110.889 210.445 111.461 211.07C112.034 211.681 112.983 211.994 114.311 211.994H134.425C135.661 211.994 136.585 211.707 137.209 211.135C137.821 210.563 138.133 209.613 138.133 208.286V159.067C138.133 157.74 137.821 156.803 137.209 156.217C136.585 155.645 135.661 155.359 134.425 155.359H114.311C112.983 155.359 112.034 155.671 111.461 156.283C110.889 156.907 110.603 157.831 110.603 159.067V208.286Z" fill="#F0F5FF"/>
<path d="M245.431 137.365L217.783 214.231H208.129C207.505 214.231 207.115 214.479 206.933 214.96C206.75 215.441 206.802 215.949 207.063 216.482L211.955 229.974H192.634L159.288 137.352H178.609L202.418 203.237L226.097 137.352H245.418L245.431 137.365Z" fill="#F0F5FF"/>
<path d="M248.605 159.067C248.605 151.664 250.284 146.186 253.627 142.661C256.984 139.135 262.54 137.365 270.294 137.365H290.408C297.811 137.365 303.289 139.044 306.814 142.387C310.34 145.744 312.11 151.299 312.11 159.054V208.273C312.11 216.04 310.34 221.595 306.814 224.939C303.289 228.296 297.811 229.961 290.408 229.961H270.294C262.527 229.961 256.971 228.192 253.627 224.666C250.271 221.14 248.605 215.663 248.605 208.26V159.041V159.067ZM266.599 208.286C266.599 209.522 266.885 210.445 267.458 211.07C268.03 211.681 268.98 211.994 270.307 211.994H290.421C291.657 211.994 292.581 211.707 293.205 211.135C293.817 210.563 294.129 209.613 294.129 208.286V159.067C294.129 157.74 293.817 156.803 293.205 156.217C292.581 155.645 291.657 155.359 290.421 155.359H270.307C268.98 155.359 268.03 155.671 267.458 156.283C266.885 156.907 266.599 157.831 266.599 159.067V208.286Z" fill="#F0F5FF"/>
<path d="M372.049 229.987H352.859L386.205 137.365H401.687L435.033 229.987H415.986L410.56 214.908H377.488L372.062 229.987H372.049ZM380.389 206.698V206.959C380.389 207.492 380.701 207.752 381.313 207.752C381.755 207.752 382.106 207.583 382.367 207.219L390.576 196.901H404.068L394.011 168.981L380.389 206.685V206.698Z" fill="#F0F5FF"/>
<path d="M442.176 229.987V155.098H451.57C452.897 155.098 453.378 154.487 453.027 153.251L442.176 137.378H464.138L485.566 168.994L507.268 137.378H528.969V230H510.976V163.971L485.566 201.416L460.17 163.971V230H442.176V229.987Z" fill="#F0F5FF"/>
<path d="M555.29 229.987H536.099L569.445 137.365H584.927L618.274 229.987H599.226L593.801 214.908H560.728L555.303 229.987H555.29ZM563.629 206.698V206.959C563.629 207.492 563.942 207.752 564.553 207.752C564.995 207.752 565.347 207.583 565.607 207.219L573.803 196.901H587.295L577.238 168.981L563.616 206.685L563.629 206.698Z" fill="#F0F5FF"/>
<path d="M625.416 229.987V154.838H633.092C634.237 154.838 634.81 154.357 634.81 153.381C634.81 153.121 634.589 152.548 634.146 151.663L625.416 137.378H645.661L686.943 198.905L686.28 137.378H704.273V230H686.41L643.41 165.832V230H625.416V229.987Z" fill="#F0F5FF"/>
<path d="M715.384 229.987V137.365H733.378V184.203C733.378 184.906 733.768 185.257 734.575 185.257C735.017 185.257 735.368 185.127 735.629 184.854L746.74 174.666H760.895V137.352H778.889V229.974H760.895V192.66H733.378V229.974H715.384V229.987Z" fill="#F0F5FF"/>
<path d="M790.013 229.987V137.365H853.517V155.359H808.006V184.203C808.006 184.906 808.397 185.257 809.203 185.257C809.646 185.257 809.997 185.127 810.257 184.854L821.368 174.666H844.527V192.66H808.006V211.981H853.517V229.974H790.013V229.987Z" fill="#F0F5FF"/>
<path d="M886.33 229.987C878.562 229.987 873.007 228.218 869.663 224.692C866.306 221.166 864.641 215.689 864.641 208.286V159.067C864.641 151.664 866.319 146.186 869.663 142.661C873.02 139.135 878.575 137.365 886.33 137.365H906.444C914.198 137.365 919.767 139.135 923.11 142.661C926.467 146.186 928.132 151.664 928.132 159.067V177.06H910.139V159.067C910.139 157.831 909.853 156.907 909.28 156.283C908.708 155.671 907.758 155.359 906.431 155.359H886.316C884.989 155.359 884.04 155.671 883.467 156.283C882.895 156.907 882.609 157.831 882.609 159.067V208.286C882.609 209.522 882.895 210.445 883.467 211.07C884.04 211.681 884.989 211.994 886.316 211.994H906.431C907.758 211.994 908.708 211.681 909.28 211.07C909.853 210.458 910.139 209.522 910.139 208.286V190.292H928.132V208.286C928.132 215.702 926.454 221.166 923.11 224.692C919.754 228.218 914.198 229.987 906.444 229.987H886.33Z" fill="#F0F5FF"/>
<path d="M939.243 229.987V137.365H1002.75V155.359H957.237V184.203C957.237 184.906 957.627 185.257 958.434 185.257C958.876 185.257 959.228 185.127 959.488 184.854L970.599 174.666H993.758V192.66H957.237V211.981H1002.75V229.974H939.243V229.987Z" fill="#F0F5FF"/>
<path d="M1013.87 229.987V168.864L1024.06 157.753C1024.32 157.492 1024.45 157.141 1024.45 156.699C1024.45 155.905 1024.1 155.502 1023.4 155.502H1013.87V137.508H1055.67C1063.09 137.508 1068.56 139.187 1072.08 142.53C1075.61 145.887 1077.38 151.443 1077.38 159.197V170.971C1077.38 176.527 1076.47 180.989 1074.67 184.333C1072.86 187.69 1069.93 190.019 1065.87 191.346L1079.9 229.974H1060.71L1047.09 192.66H1031.88V229.974H1013.88L1013.87 229.987ZM1055.67 174.679C1057.08 174.679 1058.06 174.393 1058.59 173.821C1059.12 173.248 1059.38 172.299 1059.38 170.971V159.197C1059.38 157.87 1059.07 156.933 1058.46 156.348C1057.83 155.775 1056.91 155.489 1055.67 155.489H1031.87V174.679H1055.67Z" fill="#F0F5FF"/>
</g>
<defs>
<clipPath id="clip0_14764_93852">
<rect width="1079.91" height="260" fill="white"/>
</clipPath>
</defs>
</svg>
